<svg width="16" height="16" viewBox="0 0 16 16" fill="none" xmlns="http://www.w3.org/2000/svg">
<g id="fluent:arrow-next-24-filled">
<path id="Vector" d="M4.86185 2.19524C4.97664 2.08046 5.12938 2.0115 5.29139 2.00131C5.45341 1.99113 5.61358 2.04041 5.74185 2.13991L5.80451 2.19524L11.1378 7.52857C11.2526 7.64337 11.3216 7.7961 11.3318 7.95812C11.342 8.12014 11.2927 8.28031 11.1932 8.40857L11.1378 8.47124L5.80451 13.8046C5.68454 13.9241 5.52356 13.9936 5.35426 13.9987C5.18496 14.0039 5.02004 13.9444 4.89299 13.8324C4.76595 13.7204 4.68631 13.5642 4.67025 13.3956C4.65419 13.227 4.70291 13.0586 4.80651 12.9246L4.86185 12.8619L9.72385 7.99991L4.86185 3.13791C4.73687 3.01289 4.66666 2.84335 4.66666 2.66657C4.66666 2.4898 4.73687 2.32026 4.86185 2.19524Z" fill="#1C1C1C"/>
</g>
</svg>
