<svg width="40" height="41" viewBox="0 0 40 41" fill="none" xmlns="http://www.w3.org/2000/svg">
<g id="fluent:arrow-next-24-filled" opacity="0.3">
<rect x="40" y="40.5" width="40" height="40" rx="20" transform="rotate(-180 40 40.5)" fill="#375B69"/>
<path id="Vector" d="M23.7072 29.2071C23.535 29.3793 23.3059 29.4827 23.0629 29.498C22.8198 29.5133 22.5796 29.4394 22.3872 29.2901L22.2932 29.2071L14.2929 21.2065C14.1207 21.0343 14.0173 20.8051 14.002 20.5621C13.9867 20.3191 14.0606 20.0788 14.2099 19.8864L14.2929 19.7924L22.2932 11.7917C22.4731 11.6124 22.7146 11.5082 22.9686 11.5005C23.2225 11.4927 23.4699 11.5819 23.6605 11.75C23.8511 11.918 23.9705 12.1523 23.9946 12.4052C24.0187 12.6582 23.9456 12.9108 23.7902 13.1118L23.7072 13.2058L16.4139 20.4994L23.7072 27.793C23.8947 27.9805 24 28.2349 24 28.5001C24 28.7652 23.8947 29.0196 23.7072 29.2071Z" fill="white"/>
</g>
</svg>
