<svg width="40" height="41" viewBox="0 0 40 41" fill="none" xmlns="http://www.w3.org/2000/svg">
<g id="fluent:arrow-next-24-filled">
<rect y="0.5" width="40" height="40" rx="20" fill="#414141"/>
<path id="Vector" d="M16.2928 11.7929C16.465 11.6207 16.6941 11.5173 16.9371 11.502C17.1802 11.4867 17.4204 11.5606 17.6128 11.7099L17.7068 11.7929L25.7071 19.7935C25.8793 19.9657 25.9827 20.1949 25.998 20.4379C26.0133 20.6809 25.9394 20.9212 25.7901 21.1136L25.7071 21.2076L17.7068 29.2083C17.5269 29.3876 17.2854 29.4918 17.0314 29.4995C16.7775 29.5073 16.5301 29.4181 16.3395 29.25C16.1489 29.082 16.0295 28.8477 16.0054 28.5948C15.9813 28.3418 16.0544 28.0892 16.2098 27.8882L16.2928 27.7942L23.5861 20.5006L16.2928 13.207C16.1053 13.0195 16 12.7651 16 12.4999C16 12.2348 16.1053 11.9804 16.2928 11.7929Z" fill="white"/>
</g>
</svg>
