<svg width="1440" height="560" viewBox="0 0 1440 560" fill="none" xmlns="http://www.w3.org/2000/svg">
<mask id="mask0_0_110" style="mask-type:luminance" maskUnits="userSpaceOnUse" x="0" y="-440" width="1440" height="1440">
<path d="M1440 -440H0V1000H1440V-440Z" fill="white"/>
</mask>
<g mask="url(#mask0_0_110)">
<path d="M1241.88 422.796C1220.4 474.036 1224.6 536.676 1257.24 581.676C1292.4 548.076 1330.08 521.316 1344.6 472.236C1359.96 420.396 1348.08 363.996 1359.84 311.316C1308.36 331.836 1263.36 371.556 1241.88 422.796Z" fill="#1E5D3F"/>
<path d="M1452.84 413.556C1437.24 433.356 1431.12 458.916 1426.56 483.756C1422 508.716 1413.6 532.476 1407.6 556.956C1436.16 554.916 1463.76 542.676 1487.4 526.236C1508.28 511.716 1525.32 490.716 1532.04 466.116C1535.88 452.196 1536.24 437.676 1536.6 423.276C1537.32 398.916 1537.92 374.676 1538.64 350.316C1511.64 373.716 1474.92 385.476 1452.84 413.556Z" fill="#1E5D3F"/>
<path d="M1258.8 36.0363C1269.12 24.8763 1276.56 11.5563 1284 -1.76372C1296.48 -24.0837 1308.96 -46.5237 1321.32 -68.8438C1284.84 -60.0837 1244.76 -66.9237 1210.56 -51.4437C1186.32 -40.5237 1168.2 -19.6437 1151.88 1.35625C1135.44 22.4763 1116.12 40.4763 1098.6 60.3963C1126.2 72.3963 1158 74.4363 1188 70.4763C1214.52 66.9963 1240.56 55.7163 1258.8 36.0363Z" fill="#1E5D3F"/>
<path d="M1394.28 -100.524C1381.44 -91.7641 1369.56 -82.8841 1359.12 -72.3241C1338.72 -51.6841 1324.08 -27.6841 1315.56 -2.72408C1300.92 40.2359 1315.2 129.156 1315.2 129.156C1315.2 129.156 1340.88 107.316 1355.88 97.836C1418.64 57.9959 1447.32 -10.4041 1426.44 -70.6441C1420.8 -86.7241 1412.88 -118.164 1412.88 -118.164C1412.88 -118.164 1402.08 -105.924 1394.28 -100.524Z" fill="#1E5D3F"/>
<path d="M1198.2 295.837C1231.8 278.677 1259.76 249.997 1273.08 214.357C1288.68 172.477 1279.92 124.957 1276.8 81.6367C1276.8 81.6367 1246.56 106.237 1240.44 111.997C1219.56 131.557 1200.12 148.717 1184.76 170.797C1179.24 178.717 1174.2 187.237 1169.76 196.837C1152.72 233.677 1139.88 275.077 1137.36 315.757C1137.24 316.837 1193.04 298.477 1198.2 295.837Z" fill="#1E5D3F"/>
<path d="M1406.28 229.594C1433.4 201.514 1458.12 103.234 1458.12 103.234C1458.12 103.234 1418.04 111.994 1412.64 113.674C1396.92 118.714 1382.28 127.954 1369.68 138.394C1343.88 159.754 1324.8 188.674 1310.88 218.914C1297.32 248.194 1290 280.594 1271.88 307.354C1320.12 287.794 1369.92 267.154 1406.28 229.594Z" fill="#1E5D3F"/>
<path d="M1510.08 318.634C1518.84 306.514 1526.52 293.314 1530.96 279.034C1539 253.354 1536.24 226.114 1530.24 200.314C1527.36 187.954 1513.44 152.914 1513.44 152.914C1513.44 152.914 1506.6 170.914 1502.28 178.954C1496.64 189.394 1489.2 198.994 1481.16 207.754C1465.44 225.034 1447.2 240.034 1432.68 258.394C1399.56 300.514 1389.48 359.554 1406.76 410.194C1444.44 383.554 1482.84 356.074 1510.08 318.634Z" fill="#1E5D3F"/>
<path d="M1178.64 341.797C1150.2 351.997 1128.48 370.717 1111.32 395.317C1104.6 405.037 1099.08 415.717 1094.76 426.757C1085.88 449.557 1079.76 498.397 1079.76 498.397C1079.76 498.397 1098.6 492.997 1101.36 492.517C1111.92 490.717 1122 487.597 1131.96 483.397C1154.88 473.797 1176.24 458.917 1190.88 438.517C1213.32 407.317 1232.52 322.117 1232.52 322.117C1232.52 322.117 1196.76 335.437 1178.64 341.797Z" fill="#1E5D3F"/>
<path d="M1568.28 631.474C1573.8 603.994 1579.32 576.394 1584.84 548.914C1549.68 570.274 1505.64 576.514 1475.04 603.994C1453.44 623.554 1441.44 651.274 1431.36 678.634C1430.4 681.274 1429.32 684.034 1428.24 686.674H1550.64C1552.08 684.274 1553.4 681.754 1554.48 679.234C1561.68 664.354 1564.92 647.794 1568.28 631.474Z" fill="#1E5D3F"/>
<path d="M1132.44 515.68C1132.44 515.68 1134.84 567.52 1135.08 575.08C1135.56 595.96 1134.72 619.24 1137.96 639.4C1140.72 656.08 1145.76 671.92 1152.84 686.92H1246.32C1245 658.36 1237.32 629.56 1224.48 604.36C1204.2 564.76 1132.44 515.68 1132.44 515.68Z" fill="#1E5D3F"/>
<path d="M1361.28 545.195C1333.8 569.915 1305.6 595.595 1290 629.075C1282.2 645.875 1277.52 666.035 1275.84 686.795H1375.44C1378.92 675.995 1380.84 664.715 1380.72 653.315C1380.36 616.475 1358.52 581.915 1361.28 545.195Z" fill="#1E5D3F"/>
<path d="M1158.24 -51.9216C1171.2 -79.5216 1180.08 -111.322 1189.32 -140.602C1162.44 -133.042 1136.04 -125.242 1110.24 -115.522C1099.08 -111.322 1087.92 -106.882 1078.2 -100.042C1071.24 -95.1216 1065.36 -89.1216 1060.32 -82.5216V33.1584C1075.32 26.0784 1089.96 18.2784 1103.64 8.79843C1126.44 -6.80157 1146.6 -27.0816 1158.24 -51.9216Z" fill="#1E5D3F"/>
<path d="M1200.24 109.12C1200.24 109.12 1166.64 106.24 1149.36 102.28C1118.04 95.0799 1087.32 96.2799 1060.32 104.44V216.64C1076.64 213.64 1092 208.6 1106.16 201.64C1147.08 181.96 1200.24 109.12 1200.24 109.12Z" fill="#1E5D3F"/>
<path d="M1100.76 308.438C1107 285.998 1112.16 259.597 1114.08 236.438C1095.36 245.557 1077.48 258.638 1060.44 271.238V383.797C1061.28 382.957 1062 382.117 1062.84 381.157C1080.84 360.277 1093.32 335.078 1100.76 308.438Z" fill="#1E5D3F"/>
<path d="M1094.4 628.116C1096.68 604.476 1097.52 580.476 1090.32 557.316C1089.96 556.236 1085.64 544.476 1086.24 543.996C1077.6 549.756 1068.96 555.036 1060.44 560.436V686.796H1073.88C1075.8 684.396 1077.48 681.876 1079.16 679.236C1088.64 663.876 1092.6 645.876 1094.4 628.116Z" fill="#1E5D3F"/>
</g>
<mask id="mask1_0_110" style="mask-type:luminance" maskUnits="userSpaceOnUse" x="0" y="-440" width="1440" height="1440">
<path d="M1440 -440H0V1000H1440V-440Z" fill="white"/>
</mask>
<g mask="url(#mask1_0_110)">
<path d="M272.041 -102.441C250.681 -59.2413 259.561 -16.6413 262.321 29.0788C313.681 18.9987 356.641 -21.5612 374.521 -70.7612C392.521 -119.961 386.881 -176.121 364.321 -223.281C338.761 -179.481 294.601 -148.041 272.041 -102.441Z" fill="#1E5D3F"/>
<path d="M41.8814 422.796C20.4014 474.036 24.6014 536.676 57.2414 581.676C92.4014 548.076 130.081 521.316 144.601 472.236C159.961 420.396 148.081 363.996 159.841 311.316C108.361 331.836 63.3614 371.556 41.8814 422.796Z" fill="#1E5D3F"/>
<path d="M796.08 109.957C822.96 78.6369 819.48 42.9969 822.36 5.79688C769.56 5.79688 721.44 31.7169 697.2 68.3169C672.96 105.037 671.52 150.997 688.08 192.517C719.52 161.317 767.76 143.077 796.08 109.957Z" fill="#1E5D3F"/>
<path d="M329.281 49.8382C318.481 66.9982 308.641 84.8782 300.121 103.238C300.601 103.838 301.441 103.958 302.041 104.318C324.241 106.958 345.961 107.198 368.041 102.758C382.921 99.7581 397.441 94.9581 411.121 88.4781C438.121 75.7581 460.681 52.3581 471.601 24.5181C483.481 -5.60186 486.961 -43.7619 486.241 -75.9219C475.081 -67.4019 461.641 -61.4019 449.401 -54.5619C439.441 -48.9219 429.121 -43.7619 419.281 -38.0019C406.201 -30.3219 393.721 -21.4419 382.201 -11.6019C361.561 6.15813 343.681 26.9182 329.281 49.8382Z" fill="#1E5D3F"/>
<path d="M920.52 -46.0449C892.44 -19.5249 874.92 15.0351 864.72 51.8751C863.04 57.8751 848.16 99.5152 848.16 99.5152C848.16 99.5152 901.56 95.7951 927.36 79.9551C956.4 62.0751 981.36 35.6751 997.92 5.79514C1019.28 -33.0849 1019.88 -119.965 1019.88 -119.965C1019.88 -119.965 978.24 -88.8848 972.12 -84.5648C955.08 -72.3248 935.4 -59.9649 920.52 -46.0449Z" fill="#1E5D3F"/>
<path d="M524.399 395.679C524.519 395.559 524.639 395.319 524.759 395.199C543.359 368.439 555.479 337.719 567.119 307.479C570.839 297.879 581.279 280.359 581.279 280.359C581.279 280.359 561.599 285.999 551.759 288.759C517.079 298.599 479.519 317.559 449.879 338.199C422.159 357.519 401.279 384.999 386.159 414.999C371.999 442.959 354.359 510.519 354.359 510.519C354.359 510.519 363.719 507.159 368.279 505.239C424.799 481.359 488.639 446.919 524.399 395.679Z" fill="#1E5D3F"/>
<path d="M527.401 -1.04031C533.281 23.6797 535.081 48.7597 539.401 73.5997C564.721 60.2797 585.121 37.9597 600.121 13.4797C613.441 -8.24031 620.641 -34.2803 616.921 -59.4803C614.761 -73.7603 609.361 -87.2003 603.961 -100.64C594.841 -123.2 585.601 -145.76 576.481 -168.32C561.241 -136.04 532.321 -110.48 523.441 -75.9203C516.961 -51.4403 521.521 -25.5203 527.401 -1.04031Z" fill="#1E5D3F"/>
<path d="M252.842 413.556C237.242 433.356 231.122 458.916 226.562 483.756C222.002 508.716 213.602 532.476 207.602 556.956C236.162 554.916 263.762 542.676 287.402 526.236C308.282 511.716 325.322 490.716 332.042 466.116C335.882 452.196 336.242 437.676 336.602 423.276C337.322 398.916 337.922 374.676 338.642 350.316C311.642 373.716 274.922 385.476 252.842 413.556Z" fill="#1E5D3F"/>
<path d="M58.8016 36.0363C69.1216 24.8763 76.5616 11.5563 84.0016 -1.76372C96.4816 -24.0837 108.962 -46.5237 121.322 -68.8438C84.8415 -60.0837 44.7616 -66.9237 10.5616 -51.4437C-13.6784 -40.5237 -31.7984 -19.6437 -48.1184 1.35625C-64.5584 22.4763 -83.8784 40.4763 -101.398 60.3963C-73.7984 72.3963 -41.9984 74.4363 -11.9984 70.4763C14.5216 66.9963 40.5616 55.7163 58.8016 36.0363Z" fill="#1E5D3F"/>
<path d="M789.12 206.797C753.36 224.197 710.28 226.117 678.36 249.877C655.8 266.677 641.64 292.357 629.52 317.797C617.28 343.357 601.44 366.397 587.64 390.997C618.96 397.117 652.32 392.077 682.44 381.157C709.2 371.557 733.68 353.917 748.08 329.437C756.24 315.637 760.92 300.037 765.6 284.677C773.4 258.757 781.32 232.717 789.12 206.797Z" fill="#1E5D3F"/>
<path d="M405.6 138.514C382.2 158.674 371.64 190.954 372.48 221.794C373.2 252.634 384 282.394 397.32 310.354C431.4 285.634 460.2 253.474 480.96 216.754C486.84 206.434 492 195.754 495.6 184.474C508.32 146.434 501.48 106.234 499.08 67.2344C471.48 97.7144 435.96 112.594 405.6 138.514Z" fill="#1E5D3F"/>
<path d="M533.64 164.677C524.76 193.837 520.44 226.597 515.52 256.837C541.08 245.557 566.039 234.037 590.159 220.717C600.599 214.957 611.04 208.957 619.68 200.797C639 182.557 647.04 155.197 648.72 128.677C650.4 102.157 646.68 75.6372 646.08 49.1172C622.44 63.2772 599.039 78.0372 578.759 96.7572C558.599 115.477 541.68 138.397 533.64 164.677Z" fill="#1E5D3F"/>
<path d="M714.122 9.87813C747.242 0.998123 782.402 -16.0419 803.882 -43.5219C826.082 -71.9619 832.682 -109.282 838.682 -144.922C808.562 -137.722 779.282 -127.642 751.082 -114.802C734.642 -107.242 718.562 -98.7219 704.162 -87.8019C672.842 -63.9219 649.802 -32.0019 633.242 3.75812C661.322 10.3581 685.202 17.5581 714.122 9.87813Z" fill="#1E5D3F"/>
<path d="M813.719 224.197C811.679 256.117 826.559 284.317 841.919 311.077C867.359 271.117 905.879 243.277 930.359 201.397C939.479 185.797 946.799 168.997 951.959 151.597C953.279 147.037 961.439 99.6367 961.32 99.6367C921.359 106.597 883.679 125.077 853.559 152.437C833.159 171.157 815.519 195.757 813.719 224.197Z" fill="#1E5D3F"/>
<path d="M194.278 -100.524C181.438 -91.7641 169.558 -82.8841 159.118 -72.3241C138.718 -51.6841 124.078 -27.6841 115.558 -2.72408C100.918 40.2359 115.198 129.156 115.198 129.156C115.198 129.156 140.878 107.316 155.878 97.836C218.638 57.9959 247.318 -10.4041 226.438 -70.6441C220.798 -86.7241 212.878 -118.164 212.878 -118.164C212.878 -118.164 202.078 -105.924 194.278 -100.524Z" fill="#1E5D3F"/>
<path d="M-1.80043 295.837C31.7996 278.677 59.7596 249.997 73.0796 214.357C88.6796 172.477 79.9196 124.957 76.7996 81.6367C76.7996 81.6367 46.5596 106.237 40.4396 111.997C19.5596 131.557 0.119564 148.717 -15.2404 170.797C-20.7604 178.717 -25.8004 187.237 -30.2404 196.837C-47.2804 233.677 -60.1204 275.077 -62.6404 315.757C-62.7604 316.837 -6.96043 298.477 -1.80043 295.837Z" fill="#1E5D3F"/>
<path d="M947.28 264.035C921.48 287.315 894.96 311.435 880.32 342.995C861 384.515 861.84 446.795 883.2 487.715C903.84 479.555 926.16 454.235 939.48 436.835C955.2 416.435 966.12 391.475 965.76 365.795C965.16 331.235 944.76 298.595 947.28 264.035Z" fill="#1E5D3F"/>
<path d="M206.279 229.594C233.399 201.514 258.119 103.234 258.119 103.234C258.119 103.234 218.039 111.994 212.639 113.674C196.919 118.714 182.279 127.954 169.679 138.394C143.879 159.754 124.799 188.674 110.879 218.914C97.3189 248.194 89.9989 280.594 71.8789 307.354C120.119 287.794 169.919 267.154 206.279 229.594Z" fill="#1E5D3F"/>
<path d="M310.08 318.634C318.84 306.514 326.52 293.314 330.96 279.034C339 253.354 336.24 226.114 330.24 200.314C327.36 187.954 313.44 152.914 313.44 152.914C313.44 152.914 306.6 170.914 302.28 178.954C296.64 189.394 289.2 198.994 281.16 207.754C265.44 225.034 247.2 240.034 232.68 258.394C199.56 300.514 189.48 359.554 206.76 410.194C244.44 383.554 282.84 356.074 310.08 318.634Z" fill="#1E5D3F"/>
<path d="M626.521 491.196C603.481 533.076 592.321 590.196 590.281 637.476C601.441 634.476 612.241 630.156 622.441 624.756C658.441 605.196 686.041 573.996 702.721 536.676C721.201 495.276 726.481 449.436 731.401 404.316C687.241 418.836 649.081 450.516 626.521 491.196Z" fill="#1E5D3F"/>
<path d="M480.721 488.677C462.241 503.197 444.841 520.237 436.441 542.197C427.681 565.477 416.641 613.597 416.641 613.597C416.641 613.597 480.721 594.637 508.921 577.357C533.161 562.597 550.561 540.277 563.041 515.077C576.721 487.117 582.241 457.477 589.201 427.477C589.201 427.477 549.241 446.077 530.161 456.397C512.881 465.637 496.321 476.557 480.721 488.677Z" fill="#1E5D3F"/>
<path d="M829.322 425.077C827.042 413.797 822.602 402.997 817.922 392.437C810.602 376.117 792.482 343.117 792.482 343.117C792.482 343.117 772.202 384.877 767.162 406.957C760.442 436.117 755.522 467.677 765.722 496.717C775.442 524.077 797.522 545.077 819.602 564.037C813.722 517.717 838.802 470.797 829.322 425.077Z" fill="#1E5D3F"/>
<path d="M1011.72 531.638C1017.24 522.878 1021.8 512.798 1025.04 502.958C1026.12 499.838 1030.2 466.838 1029.12 467.198C991.682 477.998 955.202 489.158 922.922 509.198C911.282 516.398 900.122 524.798 889.802 534.758C864.362 559.118 828.242 619.718 828.242 619.718C828.242 619.718 847.202 611.918 851.402 610.598C907.562 592.718 977.402 586.358 1011.72 531.638Z" fill="#1E5D3F"/>
<path d="M-21.3583 341.797C-49.7983 351.997 -71.5183 370.717 -88.6783 395.317C-95.3983 405.037 -100.918 415.717 -105.238 426.757C-114.118 449.557 -120.238 498.397 -120.238 498.397C-120.238 498.397 -101.398 492.997 -98.6383 492.517C-88.0783 490.717 -77.9983 487.597 -68.0383 483.397C-45.1183 473.797 -23.7583 458.917 -9.11828 438.517C13.3217 407.317 32.5217 322.117 32.5217 322.117C32.5217 322.117 -3.23827 335.437 -21.3583 341.797Z" fill="#1E5D3F"/>
<path d="M1030.44 46.3566C1040.52 42.1565 1050.6 37.8365 1060.44 33.1565V-82.5234C1049.64 -68.2434 1042.92 -50.4834 1039.2 -32.8434C1033.68 -6.80345 1033.68 19.9566 1030.44 46.3566Z" fill="#1E5D3F"/>
<path d="M980.162 170.799C972.722 186.159 955.922 213.879 955.922 213.879C955.922 213.879 972.242 212.919 981.482 214.719C996.722 217.599 1011.48 219.879 1026.24 219.879C1038 219.879 1049.4 218.799 1060.44 216.759V104.559C1025.04 115.359 996.002 138.279 980.162 170.799Z" fill="#1E5D3F"/>
<path d="M1019.16 307.474C1004.76 325.834 997.439 348.994 994.799 372.154C992.279 395.314 994.199 418.834 996.719 441.994C1007.88 432.154 1019.04 422.314 1030.2 412.594C1040.64 403.354 1051.08 394.114 1060.44 383.794V271.234C1058.28 272.794 1056.24 274.354 1054.2 275.914C1041.48 285.274 1028.88 295.114 1019.16 307.474Z" fill="#1E5D3F"/>
<path d="M368.282 631.474C373.802 603.994 379.322 576.394 384.842 548.914C349.682 570.274 305.642 576.514 275.042 603.994C253.442 623.554 241.442 651.274 231.362 678.634C230.402 681.274 229.322 684.034 228.242 686.674H350.642C352.082 684.274 353.402 681.754 354.482 679.234C361.682 664.354 364.922 647.794 368.282 631.474Z" fill="#1E5D3F"/>
<path d="M-67.5586 515.68C-67.5586 515.68 -65.1586 567.52 -64.9186 575.08C-64.4386 595.96 -65.2786 619.24 -62.0386 639.4C-59.2786 656.08 -54.2386 671.92 -47.1586 686.92H46.3214C45.0014 658.36 37.3214 629.56 24.4814 604.36C4.2014 564.76 -67.5586 515.68 -67.5586 515.68Z" fill="#1E5D3F"/>
<path d="M161.28 545.195C133.8 569.915 105.6 595.595 89.9998 629.075C82.1998 645.875 77.5198 666.035 75.8398 686.795H175.44C178.92 675.995 180.84 664.715 180.72 653.315C180.36 616.475 158.52 581.915 161.28 545.195Z" fill="#1E5D3F"/>
<path d="M0.240311 109.12C0.240311 109.12 -33.3597 106.24 -50.6397 102.28C-81.9597 95.0799 -112.68 96.2799 -139.68 104.44V216.64C-123.36 213.64 -108 208.6 -93.8397 201.64C-52.9197 181.96 0.240311 109.12 0.240311 109.12Z" fill="#1E5D3F"/>
</g>
</svg>
